<?xml version="1.0" encoding="UTF-8"?>
<svg id="_Слой_2" data-name="Слой 2" xmlns="http://www.w3.org/2000/svg" xmlns:xlink="http://www.w3.org/1999/xlink" viewBox="0 0 78.4939 77.7576">
  <defs>
    <style>
      .cls-1 {
        fill: #d9d9d9;
      }

      .cls-2 {
        filter: url(#drop-shadow-1);
      }
    </style>
    <filter id="drop-shadow-1" filterUnits="userSpaceOnUse">
      <feOffset dx="0" dy="0"/>
      <feGaussianBlur result="blur" stdDeviation="10"/>
      <feFlood flood-color="#000" flood-opacity=".25"/>
      <feComposite in2="blur" operator="in"/>
      <feComposite in="SourceGraphic"/>
    </filter>
  </defs>
  <g id="_Слой_1-2" data-name="Слой 1">
    <path class="cls-1" d="m54.0304,0c3.5064,0,6.6703.5009,9.496,1.4985,2.8214,1.0018,5.2361,2.3847,7.2355,4.1572s3.5321,3.8489,4.6024,6.2336,1.6055,4.9621,1.6055,7.7321c0,2.4232-.274,4.5511-.8177,6.392s-1.3315,3.4465-2.3676,4.8165c-1.0361,1.3657-2.2948,2.526-3.789,3.4722-1.4899.9462-3.181,1.7339-5.0734,2.3676,4.5553,1.4385,7.959,3.6306,10.2024,6.5761,2.2477,2.9456,3.3694,6.6446,3.3694,11.0972,0,3.789-.7021,7.1413-2.1064,10.0483-1.4,2.9156-3.2966,5.3602-5.6813,7.3425s-5.1462,3.4807-8.2844,4.4954c-3.1382,1.019-6.4648,1.5284-9.9712,1.5284-3.8232,0-7.1541-.441-9.9926-1.3187-2.8428-.8734-5.3131-2.1706-7.4195-3.8917-2.1021-1.7168-3.8917-3.8232-5.3645-6.3107-1.4728-2.4917-2.7358-5.3688-3.789-8.6312l5.7327-2.3676c.9847-.4196,1.9823-.6294,3.0012-.6294.9119,0,1.7254.1927,2.4446.578s1.2716.9462,1.6569,1.6826c.6336,1.2287,1.3229,2.4404,2.0807,3.6306.7535,1.1945,1.6569,2.2563,2.7058,3.1853,1.0532.929,2.2905,1.6826,3.7119,2.2605,1.4171.578,3.1125.8691,5.0734.8691,2.2134,0,4.14-.3596,5.7884-1.0789s3.0269-1.6569,4.1315-2.8171c1.1046-1.156,1.9266-2.4446,2.4703-3.866s.8177-2.8471.8177-4.2856c0-1.8238-.1927-3.4807-.578-4.9706-.3896-1.4942-1.1945-2.7657-2.4232-3.8147-1.2245-1.0532-2.9884-1.8752-5.2874-2.4746-2.2948-.5951-5.3731-.8948-9.2306-.8948v-9.3119c3.1896,0,5.8397-.2783,7.9419-.8391,2.1064-.5609,3.7804-1.3443,5.0263-2.3419,1.2459-1.0018,2.1107-2.2006,2.603-3.6049.4924-1.4.7364-2.9456.7364-4.6281,0-3.6134-.9804-6.3407-2.9456-8.1816s-4.6495-2.7615-8.0489-2.7615c-3.0868,0-5.6471.8135-7.6807,2.4446-2.0336,1.6269-3.455,3.7205-4.2599,6.2764-.4239,1.3315-1.0018,2.2862-1.7382,2.8642s-1.6997.8691-2.8942.8691c-.5609,0-1.156-.0514-1.7896-.1584l-6.8373-1.1902c.5266-3.6477,1.5413-6.8501,3.0526-9.603,1.507-2.7529,3.3908-5.052,5.6556-6.8929,2.2605-1.841,4.855-3.2281,7.7835-4.1572s6.0795-1.3957,9.4446-1.3957Z"/>
    <g class="cls-2">
      <path class="cls-1" d="m27.2507.8434c3.5064,0,6.7174.518,9.6287,1.5498,2.9113,1.0361,5.403,2.5003,7.4709,4.3926,2.0679,1.8966,3.6819,4.1743,4.8379,6.8416,1.1602,2.6673,1.7382,5.63,1.7382,8.8923,0,2.8043-.411,5.3988-1.2373,7.7835-.822,2.3847-1.9266,4.6667-3.3138,6.8416s-3.0055,4.2771-4.8679,6.3107c-1.8581,2.0336-3.8061,4.1058-5.8397,6.2079l-17.1467,17.5192c1.6826-.4924,3.3309-.8691,4.9449-1.1303,1.6098-.2654,3.1553-.3939,4.6281-.3939h19.5186c1.4,0,2.5174.3939,3.3394,1.1816.8263.792,1.2373,1.8324,1.2373,3.1297v7.7877H0v-4.3156c0-.8734.1841-1.7853.5523-2.7358.3682-.9462.9547-1.8196,1.7639-2.6287l23.0935-23.1492c1.9309-1.9609,3.6563-3.8404,5.1847-5.63,1.5242-1.7853,2.8043-3.5578,3.8404-5.3131,1.0318-1.7511,1.8238-3.5321,2.3676-5.3388s.8135-3.7076.8135-5.707c0-1.8238-.2612-3.4293-.7878-4.8122-.5266-1.3872-1.2801-2.5517-2.2648-3.5021-.9804-.9462-2.1449-1.6569-3.4978-2.1278-1.3486-.4752-2.8642-.7107-4.5511-.7107-3.1211,0-5.6899.7878-7.7064,2.3676-2.0165,1.5755-3.4293,3.6991-4.2342,6.3663-.3853,1.3315-.9633,2.2862-1.7382,2.8642-.7706.5823-1.7511.8691-2.9456.8691-.5266,0-1.1046-.0514-1.7339-.1584l-6.8416-1.2073c.5266-3.6477,1.5456-6.8501,3.0526-9.603s3.3951-5.052,5.6556-6.8929,4.8593-3.2238,7.7877-4.1529,6.0752-1.3957,9.4403-1.3957Z"/>
    </g>
  </g>
</svg>